<?xml version="1.0" encoding="utf-8"?>
<!-- Generated by IcoMoon.io -->
<!DOCTYPE svg PUBLIC "-//W3C//DTD SVG 1.1//EN" "http://www.w3.org/Graphics/SVG/1.1/DTD/svg11.dtd">
<svg version="1.1" xmlns="http://www.w3.org/2000/svg" xmlns:xlink="http://www.w3.org/1999/xlink" width="32" height="32" viewBox="0 0 32 32">
<path fill="#444444" d="M9.333 6.667h2.667v-2.667h-2.667v2.667zM9.333 17.333h2.667v-2.667h-2.667v2.667zM9.333 28h2.667v-2.667h-2.667v2.667zM14.667 22.667h2.667v-2.667h-2.667v2.667zM14.667 28h2.667v-2.667h-2.667v2.667zM4 28h2.667v-2.667h-2.667v2.667zM4 22.667h2.667v-2.667h-2.667v2.667zM4 17.333h2.667v-2.667h-2.667v2.667zM4 12h2.667v-2.667h-2.667v2.667zM4 6.667h2.667v-2.667h-2.667v2.667zM14.667 17.333h2.667v-2.667h-2.667v2.667zM25.333 22.667h2.667v-2.667h-2.667v2.667zM25.333 17.333h2.667v-2.667h-2.667v2.667zM25.333 28h2.667v-2.667h-2.667v2.667zM25.333 12h2.667v-2.667h-2.667v2.667zM14.667 12h2.667v-2.667h-2.667v2.667zM25.333 4v2.667h2.667v-2.667h-2.667zM14.667 6.667h2.667v-2.667h-2.667v2.667zM20 28h2.667v-2.667h-2.667v2.667zM20 17.333h2.667v-2.667h-2.667v2.667zM20 6.667h2.667v-2.667h-2.667v2.667z"></path>
</svg>
